HIERARCHY
ROOT Hips
{
	OFFSET 0.000000 0.000000 0.000000
	CHANNELS 6 Xposition Yposition Zposition Zrotation Yrotation Xrotation 
	JOINT LeftUpLeg_virtual
	{
		OFFSET 0.000000 0.000000 0.000000
		CHANNELS 3 Zrotation Yrotation Xrotation
		JOINT LeftUpLeg
		{
			OFFSET 8.479694 -4.795517 -0.379053
			CHANNELS 3 Zrotation Yrotation Xrotation
			JOINT LeftLeg
			{
				OFFSET 0.485052 -32.551468 0.112863
				CHANNELS 3 Zrotation Yrotation Xrotation
				JOINT LeftFoot
				{
					OFFSET 0.438033 -32.635670 -3.012641
					CHANNELS 3 Zrotation Yrotation Xrotation
					JOINT LeftToeBase
					{
						OFFSET 0.970169 -13.225353 11.864223
						CHANNELS 3 Zrotation Yrotation Xrotation
						End Site
						{
							OFFSET 0.000000 0.000000 0.000000
						}
					}
				}
			}
		}
	}
	JOINT RightUpLeg_virtual
	{
		OFFSET 0.000000 0.000000 0.000000
		CHANNELS 3 Zrotation Yrotation Xrotation
		JOINT RightUpLeg
		{
			OFFSET -8.479694 -4.795517 -0.379053
			CHANNELS 3 Zrotation Yrotation Xrotation
			JOINT RightLeg
			{
				OFFSET -0.484100 -32.551483 0.112903
				CHANNELS 3 Zrotation Yrotation Xrotation
				JOINT RightFoot
				{
					OFFSET -0.438985 -32.635651 -3.012681
					CHANNELS 3 Zrotation Yrotation Xrotation
					JOINT RightToeBase
					{
						OFFSET -0.970169 -13.225354 11.864223
						CHANNELS 3 Zrotation Yrotation Xrotation
						End Site
						{
							OFFSET 0.000000 0.000000 0.000000
						}
					}
				}
			}
		}
	}
	JOINT Spine_virtual
	{
		OFFSET 0.000000 0.000000 0.000000
		CHANNELS 3 Zrotation Yrotation Xrotation
		JOINT Spine
		{
			OFFSET 0.000000 7.722015 1.166203
			CHANNELS 3 Zrotation Yrotation Xrotation
			JOINT Spine1
			{
				OFFSET 0.000000 12.024086 0.248766
				CHANNELS 3 Zrotation Yrotation Xrotation
				JOINT Spine2
				{
					OFFSET -0.000000 11.503036 -0.491240
					CHANNELS 3 Zrotation Yrotation Xrotation
					JOINT Neck_virtual
					{
						OFFSET 0.000000 0.000000 0.000000
						CHANNELS 3 Zrotation Yrotation Xrotation
						JOINT Neck
						{
							OFFSET 0.000000 18.430687 -3.123054
							CHANNELS 3 Zrotation Yrotation Xrotation
							JOINT Head
							{
								OFFSET -0.000000 9.051071 1.034021
								CHANNELS 3 Zrotation Yrotation Xrotation
								End Site
								{
									OFFSET 0.000000 0.000000 0.000000
								}
							}
						}
					}
					JOINT LeftShoulder_virtual
					{
						OFFSET 0.000000 0.000000 0.000000
						CHANNELS 3 Zrotation Yrotation Xrotation
						JOINT LeftShoulder
						{
							OFFSET 6.197824 13.665230 -4.064723
							CHANNELS 3 Zrotation Yrotation Xrotation
							JOINT LeftArm
							{
								OFFSET 7.778132 -0.187073 -1.709282
								CHANNELS 3 Zrotation Yrotation Xrotation
								JOINT LeftForeArm
								{
									OFFSET 21.954697 0.000000 -2.041093
									CHANNELS 3 Zrotation Yrotation Xrotation
									JOINT LeftHand
									{
										OFFSET 22.992908 0.000000 -0.870901
										CHANNELS 3 Zrotation Yrotation Xrotation
										End Site
										{
											OFFSET 0.000000 0.000000 0.000000
										}
									}
								}
							}
						}
					}
					JOINT RightShoulder_virtual
					{
						OFFSET 0.000000 0.000000 0.000000
						CHANNELS 3 Zrotation Yrotation Xrotation
						JOINT RightShoulder
						{
							OFFSET -6.197824 13.665230 -4.064723
							CHANNELS 3 Zrotation Yrotation Xrotation
							JOINT RightArm
							{
								OFFSET -7.778132 -0.187073 -1.709282
								CHANNELS 3 Zrotation Yrotation Xrotation
								JOINT RightForeArm
								{
									OFFSET -21.954697 0.000000 -2.041093
									CHANNELS 3 Zrotation Yrotation Xrotation
									JOINT RightHand
									{
										OFFSET -22.992908 0.000000 -0.870901
										CHANNELS 3 Zrotation Yrotation Xrotation
										End Site
										{
											OFFSET 0.000000 0.000000 0.000000
										}
									}
								}
							}
						}
					}
				}
			}
		}
	}
}
MOTION
Frames: 11
Frame Time: 0.033333
-16.343130 28.247250 97.508507 -179.973490 5.749884 -179.934845 13.053622 -3.600850 -49.389088 -9.157918 5.385871 -59.727320 16.101286 8.321028 31.383114 -5.605311 -19.111989 3.733580 0.000000 0.000000 0.000000 0.548509 7.632534 -46.558971 12.974622 7.331306 -69.370973 -5.190750 -4.007968 46.989891 -1.041780 20.833300 6.475605 0.000000 0.000000 0.000000 -1.799249 7.740790 -36.583928 -6.046550 -4.629849 -0.255044 -1.446582 -0.158991 11.600994 -0.024986 -0.059379 0.050332 -2.308361 -0.030640 16.674068 3.282438 -10.577277 6.843675 0.000000 0.000000 0.000000 2.090886 0.557814 11.244618 -10.546173 -4.547033 17.844419 -49.874755 39.275951 13.812083 -11.893967 -40.867720 28.816445 0.000000 0.000000 0.000000 -4.499962 2.512103 11.007894 30.742265 5.051704 13.071056 46.952742 -37.542360 33.419699 -8.098028 49.876203 -6.690600 0.000000 0.000000 0.000000 
-16.318323 28.275993 97.585266 -179.898905 5.895319 -179.998106 12.813899 -3.579819 -49.129086 -8.798650 5.423816 -60.059124 15.972915 8.562831 31.692460 -5.640017 -19.287423 4.111049 0.000000 0.000000 0.000000 0.587447 7.972485 -46.200889 13.358612 6.778528 -69.819601 -5.196205 -4.110389 47.294958 -1.282639 20.549442 6.859066 0.000000 0.000000 0.000000 -1.719453 7.665197 -36.095986 -5.889416 -4.651459 -0.288857 -1.369866 -0.105517 11.545771 -0.008098 0.019487 0.049549 -2.322273 0.053120 16.650594 3.119107 -10.511992 7.082397 0.000000 0.000000 0.000000 2.076382 0.620084 11.217879 -10.598905 -4.423486 17.794854 -49.281475 39.366239 14.414850 -12.083967 -41.304428 28.904865 0.000000 0.000000 0.000000 -4.529675 2.550221 10.949077 30.602871 4.879966 12.835327 46.337294 -37.933494 33.893147 -8.153530 50.230727 -6.794655 0.000000 0.000000 0.000000 
-16.272293 28.307831 97.666374 -179.778447 6.043848 -179.870177 12.480903 -3.442369 -48.950979 -8.522275 5.596572 -60.572856 15.838065 8.730495 32.027747 -5.730344 -19.624909 4.593058 0.000000 0.000000 0.000000 0.540792 8.311988 -45.937045 13.807703 6.119219 -70.504723 -5.126076 -4.182606 48.019075 -1.252692 20.647570 6.835690 0.000000 0.000000 0.000000 -1.681489 7.831264 -35.635962 -5.802876 -4.726362 -0.392178 -1.296807 -0.122617 11.441573 -0.028656 0.012121 0.028662 -2.321067 0.032468 16.677384 2.948587 -10.385589 7.300726 0.000000 0.000000 0.000000 2.118582 0.615070 11.204109 -10.504373 -4.324664 17.785225 -48.876547 39.322178 14.909984 -11.959371 -41.639364 28.652749 0.000000 0.000000 0.000000 -4.525140 2.570380 10.972129 30.432827 4.762969 12.679960 45.810393 -38.191887 34.081298 -7.942016 50.473664 -6.647686 0.000000 0.000000 0.000000 
-16.198713 28.330048 97.775429 -179.878168 6.133177 -179.976646 12.135043 -3.203121 -48.700816 -8.428003 5.976914 -61.285757 15.858565 8.708237 32.835376 -5.698655 -20.022133 4.749022 0.000000 0.000000 0.000000 0.311786 8.576152 -45.469386 14.266649 5.595013 -71.291998 -5.137114 -4.256135 49.193761 -1.429305 20.614167 6.538797 0.000000 0.000000 0.000000 -1.958370 7.985564 -35.052906 -5.626063 -4.830648 -0.367752 -1.312767 -0.147977 11.368899 -0.015336 0.006039 0.038766 -2.280005 0.090970 16.566489 2.766673 -10.204452 7.504600 0.000000 0.000000 0.000000 2.149052 0.636634 11.035018 -10.451094 -4.086034 17.642085 -48.380890 39.101023 15.312982 -12.045199 -41.859559 28.586806 0.000000 0.000000 0.000000 -4.500683 2.566370 10.815243 30.343447 4.672677 12.501772 45.411240 -38.416167 34.347590 -7.942629 50.740912 -6.720898 0.000000 0.000000 0.000000 
-16.123156 28.356504 97.873749 179.991454 6.175317 -179.981468 11.797572 -2.953510 -48.398024 -8.532298 6.630729 -62.430463 16.089986 8.451525 34.796126 -5.423200 -20.369193 4.539601 0.000000 0.000000 0.000000 -0.010163 8.649437 -45.136902 14.832427 5.229197 -72.213398 -5.202118 -4.434146 50.721009 -1.640877 20.519394 6.190014 0.000000 0.000000 0.000000 -2.143577 8.071819 -34.580479 -5.512914 -4.917247 -0.329201 -1.313706 -0.156075 11.292459 -0.034975 0.005109 0.028922 -2.193605 0.087698 16.486284 2.631788 -10.080819 7.570561 0.000000 0.000000 0.000000 2.239160 0.656558 10.904830 -10.548592 -3.886621 17.560922 -47.988305 38.815945 15.617067 -11.890791 -42.017927 28.157344 0.000000 0.000000 0.000000 -4.452138 2.618364 10.735089 30.294700 4.519254 12.329286 44.978565 -38.574989 34.661181 -7.889607 50.854474 -6.743312 0.000000 0.000000 0.000000 
-16.068890 28.375238 97.996178 179.882075 6.187235 179.995238 11.720664 -2.694678 -48.151095 -8.725623 7.311862 -63.961703 16.778396 7.867236 38.200145 -4.854328 -20.540356 3.948503 0.000000 0.000000 0.000000 -0.354910 8.619229 -44.859641 15.371342 4.871833 -73.166352 -5.235972 -4.510294 52.094379 -1.676936 20.568172 6.002343 0.000000 0.000000 0.000000 -2.347383 8.094456 -34.095061 -5.390238 -4.954040 -0.243583 -1.316063 -0.096824 11.180716 -0.009593 0.081049 0.034393 -2.181623 0.024061 16.367695 2.557184 -9.987918 7.630287 0.000000 0.000000 0.000000 2.263970 0.611168 10.828597 -10.600169 -3.724341 17.377617 -47.504434 38.398729 15.967724 -11.808079 -41.934008 27.800169 0.000000 0.000000 0.000000 -4.450991 2.510982 10.548593 30.321727 4.366828 12.137746 44.585344 -38.638325 35.077738 -7.871700 50.849785 -6.753830 0.000000 0.000000 0.000000 
-16.058762 28.388170 98.117577 179.960103 6.291184 179.869658 11.624146 -2.350501 -47.830575 -9.042887 7.603087 -65.795807 17.681483 7.129661 42.782126 -4.310409 -20.655926 3.348002 0.000000 0.000000 0.000000 -0.539503 8.587486 -44.555127 15.881612 4.553013 -74.006097 -5.266087 -4.622106 53.190064 -1.653192 20.676253 5.959273 0.000000 0.000000 0.000000 -2.358895 8.087520 -33.477151 -5.187430 -5.062468 -0.117776 -1.291202 -0.170194 11.118906 0.006670 0.034494 -0.065015 -2.265036 0.024901 16.258692 2.427235 -9.796719 7.652867 0.000000 0.000000 0.000000 2.202489 0.661263 10.695848 -10.720084 -3.422072 17.197566 -47.213724 37.997080 16.238758 -11.683179 -41.672746 27.289018 0.000000 0.000000 0.000000 -4.539304 2.592977 10.430308 30.338006 4.295217 12.039910 44.073834 -38.600637 35.686864 -7.902186 50.696154 -6.810969 0.000000 0.000000 0.000000 
-16.081734 28.396580 98.227928 -179.992546 6.264141 179.979651 11.645104 -2.287042 -47.680594 -9.643603 8.047489 -67.996432 18.435592 6.654346 47.523059 -3.906032 -20.809780 3.136638 0.000000 0.000000 0.000000 -0.770900 8.398013 -44.318519 16.393197 4.151698 -74.979214 -5.348353 -4.556796 54.218902 -1.761880 20.617459 5.965070 0.000000 0.000000 0.000000 -2.392636 7.996787 -32.865610 -5.054261 -5.174482 -0.089057 -1.313504 -0.218421 10.957581 -0.041733 0.009193 -0.012824 -2.182167 0.032849 16.070610 2.365214 -9.684956 7.563054 0.000000 0.000000 0.000000 2.286049 0.641812 10.559231 -10.918496 -3.125136 17.092641 -46.985872 37.473806 16.572136 -11.283542 -41.249401 26.489839 0.000000 0.000000 0.000000 -4.485234 2.551774 10.219080 30.338915 4.215472 11.941669 43.646791 -38.406826 36.359556 -7.869022 50.429530 -6.788192 0.000000 0.000000 0.000000 
-16.105976 28.413572 98.315262 179.964857 6.477544 -179.984173 11.530551 -2.332271 -47.332733 -10.270898 8.563736 -70.366432 19.093336 6.263308 52.161482 -3.801373 -21.072672 3.307160 0.000000 0.000000 0.000000 -0.996162 8.322549 -43.950447 16.799110 4.029284 -75.873853 -5.502487 -4.658179 55.337995 -1.795808 20.622566 6.052707 0.000000 0.000000 0.000000 -2.387394 7.956846 -32.084216 -4.958083 -5.247583 -0.002888 -1.328120 -0.240453 10.760607 -0.025800 0.012050 -0.066656 -2.180506 -0.010175 15.999132 2.306973 -9.541444 7.406522 0.000000 0.000000 0.000000 2.309653 0.585979 10.442100 -11.180258 -2.792931 16.901102 -46.912987 37.084628 16.709472 -10.954632 -40.698700 25.759898 0.000000 0.000000 0.000000 -4.494104 2.562756 10.166850 30.393765 4.184319 11.876575 43.278548 -38.088768 37.114647 -7.825290 50.091586 -6.877008 0.000000 0.000000 0.000000 
-16.123970 28.445110 98.362984 -179.920201 6.678834 -179.998448 11.616755 -2.569941 -46.949033 -11.063557 8.953442 -72.965921 19.768842 5.505520 57.082425 -3.571179 -21.491105 3.416352 0.000000 0.000000 0.000000 -0.994855 8.130333 -43.551219 17.079744 4.046963 -76.794692 -5.615397 -4.859283 56.529914 -1.765440 20.537136 6.153577 0.000000 0.000000 0.000000 -2.311837 7.910838 -31.225740 -4.835409 -5.337644 0.072566 -1.290871 -0.285752 10.677340 0.025466 0.001000 0.016605 -2.270661 0.004610 15.682627 2.277837 -9.426962 7.205248 0.000000 0.000000 0.000000 2.247688 0.613562 10.209815 -11.296424 -2.488336 16.670193 -46.880602 36.510605 16.842879 -10.676868 -39.959865 25.052265 0.000000 0.000000 0.000000 -4.623627 2.569788 9.849309 30.490921 4.165764 11.903585 43.025773 -37.769396 37.833606 -7.937207 49.721889 -6.834713 0.000000 0.000000 0.000000 
-16.115839 28.495979 98.369476 179.992082 6.880266 -179.984145 11.532384 -2.834844 -46.525213 -11.698584 9.049565 -75.624251 20.491512 4.756191 62.333829 -3.441949 -21.773724 3.616192 0.000000 0.000000 0.000000 -1.120668 7.822378 -43.153972 17.512236 4.130940 -77.676559 -5.823057 -4.820180 57.833875 -1.857328 20.682153 6.289552 0.000000 0.000000 0.000000 -2.330523 7.708136 -30.462084 -4.840801 -5.374122 0.184854 -1.234670 -0.322213 10.568107 -0.015770 -0.013400 0.076570 -2.210122 0.045966 15.427015 2.215770 -9.247875 6.956286 0.000000 0.000000 0.000000 2.324228 0.668665 9.944941 -11.612190 -2.103734 16.498959 -46.989615 35.924869 17.052976 -10.345876 -39.195625 24.338804 0.000000 0.000000 0.000000 -4.565647 2.581487 9.620382 30.445609 4.248855 11.925941 43.003930 -37.271249 38.322156 -7.855036 49.359749 -6.752646 0.000000 0.000000 0.000000 
